<mxfile host="app.diagrams.net" modified="2024-05-22T17:40:49.557Z" agent="Mozilla/5.0 (Windows NT 10.0; Win64; x64) AppleWebKit/537.36 (KHTML, like Gecko) Chrome/124.0.0.0 Safari/537.36" etag="OECNxydCExpCl6ALwGYw" version="24.4.6" type="github">
  <diagram name="Página-1" id="vdEuQr3DSIT_Kp2mQ8kE">
    <mxGraphModel dx="1434" dy="772" grid="1" gridSize="10" guides="1" tooltips="1" connect="1" arrows="1" fold="1" page="1" pageScale="1" pageWidth="2200" pageHeight="2200" math="0" shadow="0">
      <root>
        <mxCell id="0" />
        <mxCell id="1" parent="0" />
        <mxCell id="NDXx4hp109tyU8wbpcws-448" style="edgeStyle=orthogonalEdgeStyle;rounded=0;orthogonalLoop=1;jettySize=auto;html=1;" edge="1" parent="1" source="NDXx4hp109tyU8wbpcws-1" target="NDXx4hp109tyU8wbpcws-429">
          <mxGeometry relative="1" as="geometry" />
        </mxCell>
        <mxCell id="NDXx4hp109tyU8wbpcws-453" style="edgeStyle=orthogonalEdgeStyle;rounded=0;orthogonalLoop=1;jettySize=auto;html=1;entryX=0;entryY=0.5;entryDx=0;entryDy=0;" edge="1" parent="1" source="NDXx4hp109tyU8wbpcws-1" target="NDXx4hp109tyU8wbpcws-433">
          <mxGeometry relative="1" as="geometry" />
        </mxCell>
        <mxCell id="NDXx4hp109tyU8wbpcws-1" value="&lt;font style=&quot;vertical-align: inherit;&quot;&gt;&lt;font style=&quot;vertical-align: inherit;&quot;&gt;Clientes&lt;/font&gt;&lt;/font&gt;" style="shape=umlActor;verticalLabelPosition=bottom;verticalAlign=top;html=1;outlineConnect=0;" vertex="1" parent="1">
          <mxGeometry x="614" y="680" width="30" height="60" as="geometry" />
        </mxCell>
        <mxCell id="NDXx4hp109tyU8wbpcws-447" style="edgeStyle=orthogonalEdgeStyle;rounded=0;orthogonalLoop=1;jettySize=auto;html=1;" edge="1" parent="1" source="NDXx4hp109tyU8wbpcws-2" target="NDXx4hp109tyU8wbpcws-430">
          <mxGeometry relative="1" as="geometry" />
        </mxCell>
        <mxCell id="NDXx4hp109tyU8wbpcws-452" style="edgeStyle=orthogonalEdgeStyle;rounded=0;orthogonalLoop=1;jettySize=auto;html=1;entryX=0;entryY=0.5;entryDx=0;entryDy=0;" edge="1" parent="1" source="NDXx4hp109tyU8wbpcws-2" target="NDXx4hp109tyU8wbpcws-433">
          <mxGeometry relative="1" as="geometry" />
        </mxCell>
        <mxCell id="NDXx4hp109tyU8wbpcws-2" value="&lt;font style=&quot;vertical-align: inherit;&quot;&gt;&lt;font style=&quot;vertical-align: inherit;&quot;&gt;Restaurantes&lt;/font&gt;&lt;/font&gt;" style="shape=umlActor;verticalLabelPosition=bottom;verticalAlign=top;html=1;outlineConnect=0;" vertex="1" parent="1">
          <mxGeometry x="610" y="854" width="30" height="60" as="geometry" />
        </mxCell>
        <mxCell id="NDXx4hp109tyU8wbpcws-449" style="edgeStyle=orthogonalEdgeStyle;rounded=0;orthogonalLoop=1;jettySize=auto;html=1;" edge="1" parent="1" source="NDXx4hp109tyU8wbpcws-3" target="NDXx4hp109tyU8wbpcws-431">
          <mxGeometry relative="1" as="geometry" />
        </mxCell>
        <mxCell id="NDXx4hp109tyU8wbpcws-3" value="&lt;font style=&quot;vertical-align: inherit;&quot;&gt;&lt;font style=&quot;vertical-align: inherit;&quot;&gt;Administradores&lt;/font&gt;&lt;/font&gt;" style="shape=umlActor;verticalLabelPosition=bottom;verticalAlign=top;html=1;outlineConnect=0;" vertex="1" parent="1">
          <mxGeometry x="614" y="1020" width="30" height="60" as="geometry" />
        </mxCell>
        <mxCell id="NDXx4hp109tyU8wbpcws-7" value="frame" style="shape=umlFrame;whiteSpace=wrap;html=1;pointerEvents=0;" vertex="1" parent="1">
          <mxGeometry x="724" y="600" width="666" height="520" as="geometry" />
        </mxCell>
        <mxCell id="NDXx4hp109tyU8wbpcws-446" style="edgeStyle=orthogonalEdgeStyle;rounded=0;orthogonalLoop=1;jettySize=auto;html=1;" edge="1" parent="1" source="NDXx4hp109tyU8wbpcws-429" target="NDXx4hp109tyU8wbpcws-435">
          <mxGeometry relative="1" as="geometry" />
        </mxCell>
        <mxCell id="NDXx4hp109tyU8wbpcws-429" value="CadastrarPerfil" style="ellipse;whiteSpace=wrap;html=1;" vertex="1" parent="1">
          <mxGeometry x="910" y="675" width="140" height="70" as="geometry" />
        </mxCell>
        <mxCell id="NDXx4hp109tyU8wbpcws-430" value="CadastrarPerfil" style="ellipse;whiteSpace=wrap;html=1;" vertex="1" parent="1">
          <mxGeometry x="920" y="849" width="140" height="70" as="geometry" />
        </mxCell>
        <mxCell id="NDXx4hp109tyU8wbpcws-431" value="GerenciarBugs" style="ellipse;whiteSpace=wrap;html=1;" vertex="1" parent="1">
          <mxGeometry x="910" y="1015" width="140" height="70" as="geometry" />
        </mxCell>
        <mxCell id="NDXx4hp109tyU8wbpcws-433" value="ReportarBugs" style="ellipse;whiteSpace=wrap;html=1;" vertex="1" parent="1">
          <mxGeometry x="1050" y="760" width="140" height="70" as="geometry" />
        </mxCell>
        <mxCell id="NDXx4hp109tyU8wbpcws-435" value="InformaçõesDoRestaurante" style="ellipse;whiteSpace=wrap;html=1;" vertex="1" parent="1">
          <mxGeometry x="1180" y="849" width="160" height="70" as="geometry" />
        </mxCell>
        <mxCell id="NDXx4hp109tyU8wbpcws-437" value="VerificarAcesso" style="html=1;dropTarget=0;whiteSpace=wrap;" vertex="1" parent="1">
          <mxGeometry x="820" y="980" width="130" height="50" as="geometry" />
        </mxCell>
        <mxCell id="NDXx4hp109tyU8wbpcws-438" value="" style="shape=module;jettyWidth=8;jettyHeight=4;" vertex="1" parent="NDXx4hp109tyU8wbpcws-437">
          <mxGeometry x="1" width="20" height="20" relative="1" as="geometry">
            <mxPoint x="-27" y="7" as="offset" />
          </mxGeometry>
        </mxCell>
        <mxCell id="NDXx4hp109tyU8wbpcws-439" value="VerificarAcesso" style="html=1;dropTarget=0;whiteSpace=wrap;" vertex="1" parent="1">
          <mxGeometry x="820" y="804" width="130" height="50" as="geometry" />
        </mxCell>
        <mxCell id="NDXx4hp109tyU8wbpcws-440" value="" style="shape=module;jettyWidth=8;jettyHeight=4;" vertex="1" parent="NDXx4hp109tyU8wbpcws-439">
          <mxGeometry x="1" width="20" height="20" relative="1" as="geometry">
            <mxPoint x="-27" y="7" as="offset" />
          </mxGeometry>
        </mxCell>
        <mxCell id="NDXx4hp109tyU8wbpcws-441" value="VerificarAcesso" style="html=1;dropTarget=0;whiteSpace=wrap;" vertex="1" parent="1">
          <mxGeometry x="800" y="640" width="130" height="50" as="geometry" />
        </mxCell>
        <mxCell id="NDXx4hp109tyU8wbpcws-442" value="" style="shape=module;jettyWidth=8;jettyHeight=4;" vertex="1" parent="NDXx4hp109tyU8wbpcws-441">
          <mxGeometry x="1" width="20" height="20" relative="1" as="geometry">
            <mxPoint x="-27" y="7" as="offset" />
          </mxGeometry>
        </mxCell>
        <mxCell id="NDXx4hp109tyU8wbpcws-443" value="Gerencia" style="html=1;dropTarget=0;whiteSpace=wrap;" vertex="1" parent="1">
          <mxGeometry x="1060" y="849" width="110" height="30" as="geometry" />
        </mxCell>
        <mxCell id="NDXx4hp109tyU8wbpcws-444" value="" style="shape=module;jettyWidth=8;jettyHeight=4;" vertex="1" parent="NDXx4hp109tyU8wbpcws-443">
          <mxGeometry x="1" width="19" height="20" relative="1" as="geometry">
            <mxPoint x="-27" y="7" as="offset" />
          </mxGeometry>
        </mxCell>
        <mxCell id="NDXx4hp109tyU8wbpcws-445" style="edgeStyle=orthogonalEdgeStyle;rounded=0;orthogonalLoop=1;jettySize=auto;html=1;" edge="1" parent="1" source="NDXx4hp109tyU8wbpcws-430" target="NDXx4hp109tyU8wbpcws-435">
          <mxGeometry relative="1" as="geometry">
            <mxPoint x="1160" y="890" as="targetPoint" />
          </mxGeometry>
        </mxCell>
        <mxCell id="NDXx4hp109tyU8wbpcws-450" value="Checa" style="html=1;dropTarget=0;whiteSpace=wrap;" vertex="1" parent="1">
          <mxGeometry x="1110" y="675" width="100" height="30" as="geometry" />
        </mxCell>
        <mxCell id="NDXx4hp109tyU8wbpcws-451" value="" style="shape=module;jettyWidth=8;jettyHeight=4;" vertex="1" parent="NDXx4hp109tyU8wbpcws-450">
          <mxGeometry x="1" width="20" height="20" relative="1" as="geometry">
            <mxPoint x="-27" y="7" as="offset" />
          </mxGeometry>
        </mxCell>
      </root>
    </mxGraphModel>
  </diagram>
</mxfile>
